<?xml version="1.0" standalone="no"?>
<!DOCTYPE svg PUBLIC "-//W3C//DTD SVG 20010904//EN"
 "http://www.w3.org/TR/2001/REC-SVG-20010904/DTD/svg10.dtd">
<svg version="1.0" xmlns="http://www.w3.org/2000/svg"
 width="500.000000pt" height="500.000000pt" viewBox="0 0 500.000000 500.000000"
 preserveAspectRatio="xMidYMid meet">

<g transform="translate(0.000000,500.000000) scale(0.100000,-0.100000)"
fill="#000000" stroke="none">
<path d="M3874 4578 c-17 -18 -36 -46 -43 -62 -6 -16 -14 -26 -18 -23 -3 4 0
15 8 24 7 10 1 7 -14 -7 -15 -13 -25 -30 -23 -36 3 -7 -2 -18 -10 -24 -11 -10
-14 -10 -14 -1 0 16 -17 5 -31 -21 -8 -16 -8 -19 1 -13 8 5 11 3 8 -6 -3 -8
-15 -13 -27 -12 -18 2 -25 -6 -23 -28 1 -4 -11 -17 -26 -30 l-27 -24 25 30
c14 17 -52 -44 -145 -135 -111 -107 -171 -173 -173 -189 -3 -18 7 -34 36 -60
21 -20 74 -73 116 -118 l78 -81 -26 -44 c-14 -23 -43 -61 -65 -82 -22 -22 -38
-43 -35 -48 3 -4 10 -6 15 -2 5 3 6 10 3 16 -4 6 -3 9 2 6 10 -6 36 17 28 24
-2 3 3 5 11 5 10 0 0 -17 -27 -45 -24 -25 -35 -42 -25 -39 10 4 16 3 13 -1 -3
-5 17 -31 45 -58 l49 -49 73 75 c39 42 59 60 42 40 -62 -73 -110 -120 -121
-120 -7 0 -20 8 -30 18 -10 9 -21 17 -25 17 -9 0 -24 14 -25 23 -2 20 -17 41
-26 36 -5 -3 -5 -11 2 -19 19 -23 -12 -12 -69 24 -28 19 -55 31 -58 27 -4 -3
-1 -6 6 -6 7 0 10 -4 7 -9 -3 -5 1 -8 9 -7 7 0 14 -3 15 -9 1 -5 7 -17 14 -25
7 -8 13 -25 14 -37 l1 -23 -27 25 c-39 36 -51 31 -16 -7 l29 -33 -30 26 c-147
127 -344 227 -555 280 -85 21 -117 24 -305 24 -115 0 -194 3 -175 6 31 6 29 7
-20 9 l-55 3 45 7 c46 7 42 8 -44 14 -27 2 -51 8 -55 13 -3 5 -17 14 -31 21
-22 11 -22 11 -2 6 27 -6 28 3 4 29 -16 19 -16 20 5 8 19 -10 22 -9 16 5 -4
12 -14 15 -39 11 -19 -3 -36 -1 -39 4 -4 5 3 9 13 9 11 0 26 8 33 17 12 14 12
16 -1 11 -32 -12 -132 -30 -137 -24 -3 3 16 11 43 17 27 7 43 14 37 16 -6 2
-30 -1 -52 -7 l-41 -11 0 -55 c0 -71 -10 -88 -68 -119 -26 -14 -36 -23 -22
-19 14 3 40 15 59 25 18 11 36 17 39 15 7 -8 -120 -66 -144 -66 -11 0 -29 9
-39 20 -10 11 -32 24 -48 28 -29 7 -29 9 -12 25 34 34 5 29 -57 -10 -62 -39
-63 -40 -60 -79 9 -105 9 -108 -21 -118 -23 -9 -31 -6 -60 20 -17 17 -41 37
-51 45 -18 12 -19 12 -11 -1 4 -8 -8 1 -28 19 -42 40 -44 43 -19 34 13 -5 11
1 -8 22 -16 18 -19 26 -9 23 12 -5 15 -1 12 16 -4 17 14 40 84 107 150 143
159 164 97 219 l-29 25 28 -31 c43 -48 14 -54 -31 -7 -20 21 -93 97 -162 168
-77 80 -124 137 -122 147 2 11 -5 18 -20 20 -15 2 -24 11 -26 24 -2 15 -13 24
-35 28 -23 5 -28 9 -18 15 19 12 4 33 -18 26 -21 -6 -48 19 -32 29 17 11 1 37
-16 27 -11 -6 -24 0 -44 23 l-28 31 -36 -19 c-32 -18 -127 -96 -97 -81 6 3 26
-4 43 -16 l31 -22 -38 -37 c-46 -43 -132 -118 -122 -106 8 9 -15 36 -31 36
-21 0 -21 22 0 53 16 21 -4 8 -57 -40 -208 -186 -366 -388 -350 -447 4 -11 68
-79 143 -151 75 -71 201 -194 280 -272 79 -79 150 -143 157 -143 7 0 62 45
122 100 64 58 118 100 129 100 20 0 69 -45 113 -104 44 -58 20 -144 -37 -132
l-26 6 25 -15 c38 -22 5 -18 -41 6 -49 24 -53 22 -99 -65 l-35 -66 43 -39 c48
-44 49 -57 9 -141 l-22 -45 -64 -2 c-35 -1 -67 -5 -72 -10 -10 -11 -39 -125
-39 -156 0 -18 8 -28 29 -37 55 -22 65 -42 58 -117 -7 -88 -12 -99 -49 -112
-42 -15 -49 -12 -13 4 36 17 20 19 -24 4 l-31 -11 0 -75 c0 -82 11 -113 40
-113 44 0 70 -22 85 -73 18 -60 20 -138 4 -154 -6 -6 -18 -9 -27 -6 -10 4 -13
2 -8 -5 4 -7 2 -10 -7 -6 -8 3 -19 -1 -25 -9 -8 -10 -5 -33 14 -92 14 -44 28
-82 30 -85 3 -3 31 -7 61 -10 62 -6 87 -28 99 -88 6 -31 0 -38 -154 -194
l-160 -162 -63 57 c-38 34 -73 57 -87 57 -33 0 -492 -453 -492 -486 0 -79 452
-537 576 -584 26 -10 84 11 84 30 0 5 12 16 28 24 15 8 41 34 59 58 17 23 104
117 192 208 114 116 161 172 161 188 0 16 -31 55 -97 123 l-96 99 24 27 c13
14 49 51 79 82 30 31 72 75 93 99 41 45 60 51 95 26 26 -18 27 -31 5 -100
l-16 -52 29 -26 c16 -14 46 -37 66 -52 l37 -26 42 36 c49 41 59 43 114 16 74
-35 80 -44 80 -116 l0 -65 60 -24 c72 -30 102 -31 110 -6 10 31 43 54 90 61
24 4 42 3 40 0 -3 -4 8 -10 23 -14 44 -9 52 -19 60 -82 l7 -59 50 2 c37 2 45
0 30 -7 -15 -7 -6 -9 35 -7 l54 2 14 57 14 58 73 0 c81 0 87 -4 104 -67 6 -23
16 -45 22 -48 5 -4 43 -3 84 0 71 7 76 9 81 34 22 100 25 105 87 121 l58 14
44 -47 c25 -26 46 -47 47 -47 2 0 35 13 73 29 l70 28 0 65 c0 71 9 88 58 111
65 30 72 29 117 -8 23 -19 48 -35 55 -35 7 0 38 20 69 46 59 47 68 72 43 109
-34 50 -24 95 21 95 21 0 52 -24 140 -113 61 -62 112 -119 112 -126 0 -8 -35
-51 -79 -96 -43 -45 -82 -92 -86 -105 -6 -19 12 -42 121 -154 142 -145 305
-321 317 -342 4 -8 21 -21 37 -29 27 -14 33 -14 59 0 37 19 148 103 228 173
56 48 298 303 263 276 -11 -9 -18 -9 -27 1 -6 7 -9 15 -7 18 3 3 -4 8 -15 12
-12 3 -21 11 -21 18 0 6 -19 -7 -42 -28 l-42 -40 41 50 c44 54 86 95 82 80 -4
-14 21 -58 38 -68 7 -5 10 -13 7 -19 -4 -7 -2 -8 5 -4 6 4 9 12 6 17 -4 5 -2
9 4 9 11 0 45 54 55 86 5 17 -20 47 -146 171 -241 236 -337 323 -356 323 -20
-1 -168 -135 -164 -150 4 -17 -1 -13 -63 52 l-60 63 59 -55 c32 -30 52 -46 45
-35 -16 24 -265 266 -255 248 16 -29 -14 -10 -32 20 -25 40 -20 91 14 160 l24
47 60 0 c67 0 70 3 105 109 l18 55 -23 18 c-13 10 -30 16 -38 13 -42 -16 -55
62 -26 161 14 48 19 54 52 64 20 5 45 10 55 10 22 0 25 9 29 95 3 66 2 70 -19
71 -12 1 -39 10 -60 20 l-38 19 -7 79 c-8 91 -4 100 54 118 22 6 42 18 45 25
9 23 -32 168 -47 169 -8 0 -10 -1 -4 -3 11 -4 29 -82 20 -90 -2 -2 -7 14 -11
36 l-7 41 -47 0 c-55 0 -74 16 -115 97 -26 51 -35 82 -16 53 8 -12 10 -11 10
6 0 11 16 35 35 54 19 19 35 40 35 47 0 13 -49 93 -57 93 -5 0 3 -15 29 -52
23 -34 23 -40 -4 -57 -23 -14 -23 -14 -4 8 11 11 14 21 8 21 -7 0 -12 7 -12
15 0 9 -7 18 -15 21 -8 4 -12 10 -9 15 3 5 1 9 -4 9 -5 0 -15 12 -22 26 -12
21 -19 24 -40 18 -40 -11 -90 -12 -97 -1 -3 6 -1 7 5 3 20 -12 14 4 -13 36
-24 28 -35 65 -16 54 5 -3 21 13 36 36 43 65 106 128 128 128 12 0 59 -38 117
-94 53 -51 107 -97 119 -101 21 -6 55 25 297 266 150 150 278 283 284 295 15
26 4 49 -70 149 -63 86 -210 248 -218 240 -3 -3 -22 9 -41 27 -19 18 -30 26
-23 17 19 -25 4 -57 -25 -54 -23 2 -21 -2 24 -48 26 -28 -10 3 -82 69 -71 65
-146 133 -165 149 -20 17 -30 26 -23 21 8 -5 20 -3 31 5 27 21 31 32 22 49
-10 18 -90 65 -90 53 0 -5 -15 -20 -32 -33 l-33 -23 29 31 c17 18 28 32 25 32
-3 0 -19 -15 -35 -32z m70 -139 c-3 -5 1 -6 8 -4 8 3 25 -6 38 -20 24 -26 47
-34 34 -12 -11 17 29 -14 41 -33 5 -8 10 -19 10 -23 0 -5 32 -38 71 -75 38
-37 54 -52 34 -34 -20 17 -39 32 -43 32 -14 0 -7 -24 15 -49 20 -22 3 -8 -91
79 -9 8 -44 39 -79 69 -44 38 -59 57 -52 66 6 8 5 16 -3 25 -10 12 -9 12 5 1
10 -7 15 -17 12 -22z m-2891 -6 c-5 -13 -3 -15 13 -9 10 4 -17 -26 -60 -66
-73 -67 -109 -87 -121 -68 -5 9 153 160 166 160 5 0 5 -8 2 -17z m61 -48 c-5
-11 -2 -14 12 -8 11 3 -5 -15 -35 -42 -67 -61 -160 -135 -144 -114 9 10 9 19
2 26 -6 6 17 33 73 81 84 73 102 84 92 57z m2866 -65 c36 -31 96 -89 135 -130
60 -65 62 -68 12 -20 -34 32 -57 48 -57 39 0 -8 6 -21 13 -29 14 -15 -137 118
-192 169 -20 18 -29 29 -20 22 21 -14 32 -2 16 18 -11 14 -10 15 8 1 11 -8 49
-40 85 -70z m-61 -35 c6 3 10 3 9 -2 -2 -4 31 -41 72 -82 41 -41 65 -66 52
-56 -32 26 -40 10 -11 -22 13 -15 -18 11 -70 57 -96 87 -174 161 -157 148 6
-5 16 -8 24 -8 12 0 12 3 1 18 -7 9 5 0 28 -22 23 -21 46 -35 52 -31z m-2764
34 c-1 -11 -37 -53 -85 -97 -46 -42 -78 -67 -71 -55 10 20 9 21 -11 18 -18 -3
-11 6 27 40 28 24 50 48 50 54 0 5 4 13 9 18 5 5 6 3 2 -4 -12 -22 7 -14 44
17 19 17 35 30 35 30 1 0 1 -9 0 -21z m2353 -143 c-74 -75 -139 -136 -145
-136 -6 0 53 63 131 139 77 77 142 138 144 136 2 -2 -56 -65 -130 -139z m812
109 c13 -14 21 -25 18 -25 -2 0 -15 11 -28 25 -13 14 -21 25 -18 25 2 0 15
-11 28 -25z m-3121 -1 c-14 -17 -11 -21 67 -81 16 -12 63 -54 105 -95 42 -40
97 -92 122 -115 l46 -42 -42 -31 c-28 -21 -52 -30 -78 -30 -21 0 -40 -4 -44
-10 -3 -5 -20 -19 -38 -32 -19 -13 -27 -16 -19 -6 11 14 9 19 -18 35 -17 10
-33 29 -36 43 -16 76 -41 105 -116 140 -27 13 -45 27 -41 33 4 6 1 7 -7 2 -8
-5 -21 2 -35 19 l-23 27 -39 -33 c-74 -63 5 19 105 108 90 80 120 103 91 68z
m2641 -29 c23 -19 45 -33 49 -30 5 2 21 -10 37 -27 16 -18 20 -26 9 -18 -11 8
9 -17 45 -55 36 -38 52 -58 35 -44 -25 21 -34 23 -52 15 -13 -6 -23 -14 -23
-19 0 -4 -4 -5 -10 -2 -5 3 -10 1 -10 -4 0 -6 -15 -11 -32 -11 -75 0 -137 -70
-139 -155 -1 -38 -3 -44 -8 -25 l-7 25 -8 -22 c-7 -21 -18 -28 -39 -24 -4 1 0
-11 10 -26 14 -22 8 -19 -30 15 -33 29 -55 42 -76 42 -18 0 -41 10 -58 26 -15
14 -22 22 -14 18 11 -5 13 -3 8 10 -6 14 -4 15 16 5 20 -11 21 -11 8 5 -12 15
-10 20 19 46 19 17 31 30 28 30 -3 0 12 19 34 42 21 23 38 46 38 51 0 12 39
47 52 47 5 0 8 3 6 8 -2 4 11 21 29 39 18 17 33 29 33 25 0 -3 5 -1 12 6 8 8
8 15 -2 27 -21 25 -4 17 40 -20z m375 -165 c10 -11 16 -20 13 -20 -3 0 -13 9
-23 20 -10 11 -16 20 -13 20 3 0 13 -9 23 -20z m-50 -50 c10 -11 16 -20 13
-20 -3 0 -13 9 -23 20 -10 11 -16 20 -13 20 3 0 13 -9 23 -20z m96 3 c13 -16
12 -17 -3 -4 -17 13 -22 21 -14 21 2 0 10 -8 17 -17z m-156 -43 c21 -22 37
-40 34 -40 -3 0 -23 18 -44 40 -21 22 -37 40 -34 40 3 0 23 -18 44 -40z
m-3008 24 c-3 -3 -12 -4 -19 -1 -8 3 -5 6 6 6 11 1 17 -2 13 -5z m79 -10 c25
-17 54 -62 54 -86 0 -7 -8 3 -18 22 -9 19 -32 45 -51 57 -19 13 -29 23 -22 23
6 0 23 -7 37 -16z m2768 8 c3 -5 -16 -10 -42 -11 -25 -1 -50 -5 -54 -9 -4 -4
16 -6 45 -4 66 4 88 -16 95 -88 4 -46 2 -52 -31 -85 -38 -38 -27 -47 19 -14
l29 21 -28 -26 c-22 -20 -38 -26 -76 -26 -41 0 -52 5 -81 35 -19 19 -30 35
-24 35 5 0 8 18 6 39 -2 21 2 49 9 62 12 24 12 24 -10 5 -35 -32 -25 2 13 40
29 29 41 34 79 34 25 0 48 -4 51 -8z m-2768 -36 c74 -49 6 -206 -89 -206 -29
0 -83 34 -97 61 -9 15 -9 19 -1 14 8 -4 10 5 5 33 -8 53 16 98 59 111 40 13
92 7 123 -13z m3054 -21 c13 -14 21 -25 18 -25 -2 0 -15 11 -28 25 -13 14 -21
25 -18 25 2 0 15 -11 28 -25z m-15 -21 c9 -15 12 -23 6 -20 -11 7 -35 46 -28
46 3 0 12 -12 22 -26z m-16 -57 c-2 -2 -17 12 -33 32 l-30 36 34 -32 c19 -18
32 -34 29 -36z m-2114 3 c3 -6 -1 -7 -9 -4 -18 7 -21 14 -7 14 6 0 13 -4 16
-10z m2075 -4 c0 -2 -7 -9 -15 -16 -13 -11 -14 -10 -9 4 5 14 24 23 24 12z
m-3176 -83 c11 -14 33 -31 50 -39 17 -7 23 -13 14 -14 -23 0 -76 47 -94 84 -8
17 -9 23 -2 12 7 -10 22 -29 32 -43z m2849 -37 c64 -30 139 -14 186 40 35 39
41 36 11 -6 -39 -55 -137 -77 -200 -45 -28 15 -80 73 -80 91 0 5 11 -8 24 -27
14 -20 40 -44 59 -53z m-1566 -12 c-3 -3 -12 -4 -19 -1 -8 3 -5 6 6 6 11 1 17
-2 13 -5z m-1139 -11 c-10 -2 -28 -2 -40 0 -13 2 -5 4 17 4 22 1 32 -1 23 -4z
m1059 -9 c-3 -3 -12 -4 -19 -1 -8 3 -5 6 6 6 11 1 17 -2 13 -5z m583 -46 c366
-87 681 -338 850 -676 49 -100 98 -260 112 -364 11 -89 10 -100 -11 -171 -12
-41 -23 -86 -24 -99 0 -12 -4 -25 -7 -28 -3 -3 -12 -18 -20 -35 -21 -40 -47
-44 -60 -9 -6 15 -12 95 -13 178 -2 128 -5 158 -23 196 -22 49 -84 110 -112
110 -9 0 -1 -8 18 -18 36 -19 85 -99 93 -152 2 -14 2 -19 0 -12 -3 7 -9 10
-14 7 -5 -3 -6 1 -3 9 3 9 -4 37 -17 63 -19 39 -24 43 -29 27 -9 -24 7 -57 23
-48 7 4 9 4 5 -1 -4 -4 -2 -15 5 -24 6 -9 -3 -4 -21 11 -39 32 -83 42 -149 34
-174 -21 -314 -24 -958 -19 -390 2 -712 7 -714 9 -2 2 290 4 649 4 359 0 651
2 649 4 -2 2 -135 6 -296 10 -160 4 -304 11 -320 16 l-28 8 30 3 c61 5 83 6
226 7 139 2 147 3 172 26 14 13 32 26 39 29 8 4 7 6 -4 6 -10 1 -18 6 -18 11
0 13 109 13 245 -2 61 -6 111 -12 113 -14 2 -1 -4 -15 -14 -31 l-18 -28 23 20
24 20 -14 -25 c-26 -49 -17 -54 22 -11 21 24 37 47 34 51 -8 13 45 18 140 14
58 -2 77 -1 55 4 -50 11 -66 22 -49 33 8 5 26 9 41 9 33 0 49 26 37 58 -5 12
-11 22 -13 22 -3 0 -3 -6 0 -14 7 -19 -8 -27 -26 -14 -12 8 -12 9 3 4 11 -4
16 -2 11 5 -3 6 -30 9 -63 8 -31 -2 -62 0 -69 4 -15 10 -32 -30 -32 -74 0 -16
-4 -29 -10 -29 -5 0 -10 6 -10 13 0 7 -3 8 -8 2 -13 -18 -28 -14 -29 8 -2 40
-12 70 -48 143 -65 130 -71 134 -317 159 -140 14 -547 22 -566 11 -4 -2 -59
-7 -122 -10 -63 -4 -133 -12 -155 -19 -22 -6 -45 -11 -51 -12 -6 0 -20 -7 -30
-15 -19 -14 -19 -14 -1 7 11 13 25 19 35 16 10 -4 13 -2 8 5 -5 8 -1 10 10 5
13 -5 15 -3 9 7 -6 10 -4 12 9 7 9 -4 14 -3 11 2 -3 5 21 13 52 17 32 4 50 10
41 12 -10 2 -43 -2 -73 -8 -91 -19 -139 -73 -195 -217 -17 -43 -35 -86 -40
-95 -7 -12 -7 -18 0 -18 5 0 10 -4 10 -10 0 -16 -37 -11 -44 6 -10 25 -7 76 4
69 6 -4 7 1 3 11 -4 10 -8 13 -10 7 -3 -8 -16 -8 -45 3 -53 18 -93 18 -112 -2
-23 -23 -20 -61 6 -75 21 -11 19 -13 -34 -40 -158 -80 -179 -201 -107 -611 12
-67 -1 -130 -34 -165 -29 -32 -43 -29 -71 15 -36 55 -65 161 -83 302 -13 105
-13 143 -3 240 16 150 45 287 78 364 88 204 274 430 457 553 167 113 402 199
590 216 91 9 312 -6 395 -25z m1217 -13 c0 -8 -4 -12 -9 -9 -5 3 -6 10 -3 15
9 13 12 11 12 -6z m-2626 -149 c41 -43 65 -74 54 -68 -23 12 -165 166 -165
178 0 5 8 0 18 -11 10 -11 52 -55 93 -99z m14 34 c38 -38 64 -70 58 -70 -6 0
-39 32 -73 70 -34 39 -60 70 -58 70 2 0 35 -31 73 -70z m2170 -50 c10 -11 14
-20 8 -20 -5 0 -18 9 -28 20 -10 11 -14 20 -8 20 5 0 18 -9 28 -20z m-124 -37
c13 -16 12 -17 -3 -4 -17 13 -22 21 -14 21 2 0 10 -8 17 -17z m193 -38 c-9
-14 -18 -25 -21 -25 -5 0 5 18 20 38 17 22 18 13 1 -13z m-204 -20 c13 -14 21
-25 18 -25 -2 0 -15 11 -28 25 -13 14 -21 25 -18 25 2 0 15 -11 28 -25z
m-1047 -442 c-7 -2 -21 -2 -30 0 -10 3 -4 5 12 5 17 0 24 -2 18 -5z m114 0
c-20 -2 -52 -2 -70 0 -17 2 0 4 38 4 39 0 53 -2 32 -4z m171 -2 c85 -1 95 -3
117 -26 14 -13 25 -30 24 -37 0 -7 -5 -4 -10 7 -18 36 -44 44 -153 46 -58 1
-106 5 -106 9 0 5 8 7 18 5 9 -2 59 -4 110 -4z m-355 -8 c-7 -2 -19 -2 -25 0
-7 3 -2 5 12 5 14 0 19 -2 13 -5z m-1160 -20 c-13 -2 -33 -2 -45 0 -13 2 -3 4
22 4 25 0 35 -2 23 -4z m1245 -44 c2 -8 -2 -6 -8 4 -6 10 -24 17 -43 18 -27 0
-29 2 -12 9 22 9 57 -8 63 -31z m166 15 c9 -8 15 -25 15 -37 -1 -20 -2 -21 -6
-2 -9 35 -25 47 -59 43 -18 -2 -30 0 -28 4 9 14 62 9 78 -8z m168 -1 c10 -9
18 -21 18 -27 0 -6 -7 0 -16 13 -13 18 -24 22 -50 19 -18 -2 -30 0 -28 4 9 14
57 9 76 -9z m-590 -58 c-34 -7 -74 -9 -90 -6 -22 5 -16 7 28 12 99 10 130 8
62 -6z m928 -11 c63 -9 119 -19 124 -24 5 -5 -4 -7 -20 -5 -16 2 -98 12 -181
21 -84 10 -153 21 -153 25 0 9 70 3 230 -17z m251 -7 c-11 -11 -41 -3 -41 11
0 5 12 7 26 4 17 -3 22 -8 15 -15z m-1323 6 c-10 -2 -26 -2 -35 0 -10 3 -2 5
17 5 19 0 27 -2 18 -5z m-75 -10 c-7 -2 -19 -2 -25 0 -7 3 -2 5 12 5 14 0 19
-2 13 -5z m369 -23 c6 0 9 -3 6 -6 -9 -8 -48 14 -48 27 0 6 7 3 16 -5 8 -9 20
-16 26 -16z m234 12 c-10 -2 -22 0 -28 6 -6 6 0 7 19 4 21 -5 23 -7 9 -10z
m1471 -4 c-3 -8 -6 -5 -6 6 -1 11 2 17 5 13 3 -3 4 -12 1 -19z m-2740 -30 c-3
-8 -6 -5 -6 6 -1 11 2 17 5 13 3 -3 4 -12 1 -19z m957 13 c3 -5 -60 -12 -140
-16 -113 -6 -147 -10 -151 -22 -3 -8 -1 -19 6 -26 6 -6 11 -16 11 -21 0 -10
-59 54 -60 65 0 3 19 7 43 8 23 1 71 6 107 10 92 12 178 13 184 2z m-430 -7
c36 -5 51 -13 67 -35 23 -32 33 -69 19 -69 -11 0 -103 42 -110 51 -3 3 -14 9
-25 13 -16 6 -17 9 -5 16 10 7 -13 10 -68 10 -95 0 -124 -11 -172 -67 -31 -36
-31 -36 -8 -3 50 69 69 76 234 88 12 1 42 -1 68 -4z m584 -1 c-10 -2 -26 -2
-35 0 -10 3 -2 5 17 5 19 0 27 -2 18 -5z m280 0 c-49 -2 -127 -2 -175 0 -49 1
-9 3 87 3 96 0 136 -2 88 -3z m-1401 -45 c-3 -8 -6 -5 -6 6 -1 11 2 17 5 13 3
-3 4 -12 1 -19z m310 -6 c-10 -10 -14 -22 -10 -25 3 -4 -2 -7 -12 -7 -17 0
-16 3 5 25 27 29 42 35 17 7z m-320 -54 c-3 -7 -5 -2 -5 12 0 14 2 19 5 13 2
-7 2 -19 0 -25z m430 6 c-3 -3 -12 -4 -19 -1 -8 3 -5 6 6 6 11 1 17 -2 13 -5z
m34 -57 c40 -27 59 -61 57 -102 -1 -27 -1 -27 -5 -5 -8 48 -24 75 -56 98 -48
32 -98 29 -144 -9 l-38 -32 37 37 c46 44 96 49 149 13z m1781 -7 l33 -31 -40
26 c-31 21 -48 26 -77 22 -43 -6 -90 -40 -106 -77 l-11 -25 6 25 c7 32 21 49
58 72 47 28 99 24 137 -12z m-2255 -17 c-3 -10 -5 -4 -5 12 0 17 2 24 5 18 2
-7 2 -21 0 -30z m423 15 c0 -4 8 -8 18 -8 21 -1 65 -36 58 -48 -2 -4 -1 -14 4
-21 5 -8 2 -30 -6 -53 -7 -21 -10 -38 -7 -38 3 0 -2 -9 -12 -20 -10 -11 -23
-20 -29 -20 -6 0 -5 4 3 9 10 7 10 10 1 16 -7 4 -16 2 -20 -5 -4 -6 -10 -11
-14 -11 -23 3 -27 -2 -6 -9 25 -8 24 -8 -5 -9 -66 -2 -125 62 -125 135 0 50
12 36 14 -17 2 -25 9 -46 19 -54 9 -7 14 -15 10 -18 -3 -4 -1 -7 5 -7 16 0 15
4 -7 41 -16 26 -17 37 -8 63 5 17 14 34 19 37 6 3 9 10 8 15 0 5 8 10 20 12
11 2 20 7 20 11 0 3 9 7 20 7 11 0 20 -4 20 -8z m1801 -29 c5 -11 17 -19 27
-19 13 0 14 -2 3 -9 -8 -5 -9 -11 -3 -15 12 -7 8 -56 -5 -65 -5 -3 -12 -14
-16 -24 -4 -10 -11 -15 -17 -12 -5 3 -10 -1 -10 -9 0 -38 58 2 79 54 7 19 10
21 10 6 1 -10 -16 -36 -38 -57 -30 -30 -47 -39 -72 -39 -43 0 -103 35 -95 55
3 8 0 14 -7 12 -7 -1 -13 11 -14 28 -2 29 -2 29 7 5 7 -21 8 -17 9 23 1 63 23
84 85 84 35 0 49 -4 57 -18z m-768 -6 c-67 -2 -179 -2 -250 0 -70 1 -15 3 122
3 138 0 195 -2 128 -3z m180 0 c-7 -2 -19 -2 -25 0 -7 3 -2 5 12 5 14 0 19 -2
13 -5z m5 -50 c-185 -2 -491 -2 -680 0 -189 1 -37 2 337 2 374 0 528 -1 343
-2z m-1651 -65 c-3 -8 -6 -5 -6 6 -1 11 2 17 5 13 3 -3 4 -12 1 -19z m524 -1
c-10 -9 -11 -8 -5 6 3 10 9 15 12 12 3 -3 0 -11 -7 -18z m-200 -81 c33 -13 68
-17 148 -15 67 2 114 -2 128 -9 30 -17 1394 -17 1410 -1 7 7 51 11 120 10 117
-2 168 8 189 36 8 11 13 13 14 5 0 -7 -15 -21 -33 -32 -27 -17 -50 -20 -153
-20 -83 0 -124 -4 -133 -12 -9 -10 -161 -12 -709 -9 -383 2 -705 7 -714 12 -9
5 -67 9 -128 9 -151 0 -195 21 -214 100 -3 14 3 7 13 -16 15 -32 29 -45 62
-58z m1322 87 c-182 -2 -484 -2 -670 0 -186 1 -36 2 332 2 369 0 521 -1 338
-2z m0 -60 c-182 -2 -484 -2 -670 0 -186 1 -36 2 332 2 369 0 521 -1 338 -2z
m-1636 -55 c-2 -13 -4 -5 -4 17 -1 22 1 32 4 23 2 -10 2 -28 0 -40z m2580 -40
c-3 -8 -6 -5 -6 6 -1 11 2 17 5 13 3 -3 4 -12 1 -19z m-2570 -35 c-3 -10 -5
-4 -5 12 0 17 2 24 5 18 2 -7 2 -21 0 -30z m2560 -25 c-3 -8 -6 -5 -6 6 -1 11
2 17 5 13 3 -3 4 -12 1 -19z m-2059 -10 c33 -33 -3 -78 -64 -78 -103 0 -87 87
17 89 19 1 40 -4 47 -11z m-491 -20 c-3 -8 -6 -5 -6 6 -1 11 2 17 5 13 3 -3 4
-12 1 -19z m2540 -30 c-3 -8 -6 -5 -6 6 -1 11 2 17 5 13 3 -3 4 -12 1 -19z
m-2530 -20 c-3 -8 -6 -5 -6 6 -1 11 2 17 5 13 3 -3 4 -12 1 -19z m10 -40 c-3
-8 -6 -5 -6 6 -1 11 2 17 5 13 3 -3 4 -12 1 -19z m1593 -20 c26 -44 26 -110
-2 -167 -18 -37 -23 -41 -28 -25 -4 10 -4 27 1 36 5 9 9 44 9 78 0 65 -15 84
-49 63 -27 -17 -61 -89 -68 -142 -9 -80 18 -97 77 -47 14 12 19 14 12 4 -11
-14 -10 -17 4 -20 14 -2 13 -6 -7 -23 -13 -11 -18 -13 -11 -4 18 24 4 29 -28
11 -27 -16 -30 -16 -46 0 -9 9 -16 28 -16 42 0 14 -5 26 -10 26 -11 0 -7 -50
5 -67 6 -8 6 -13 -1 -13 -28 0 -29 90 -2 164 24 62 77 116 115 116 18 0 31
-10 45 -32z m160 23 c0 -6 -5 -13 -11 -17 -13 -7 -59 -103 -59 -121 0 -7 10
-14 23 -14 17 -1 16 -3 -8 -8 -19 -5 -29 -12 -27 -22 13 -54 14 -82 3 -75 -9
6 -10 0 -5 -20 5 -21 4 -25 -6 -19 -10 6 -12 3 -6 -11 6 -15 5 -17 -5 -6 -10
9 -10 15 -2 23 6 6 9 18 6 26 -3 8 -1 18 6 22 8 5 7 12 -4 27 -14 18 -14 18
-15 -8 0 -16 -4 -28 -10 -28 -5 0 -7 -6 -4 -14 3 -8 1 -17 -5 -20 -6 -4 -7
-14 -4 -24 5 -14 3 -15 -7 -5 -11 10 -11 15 0 28 7 8 10 18 7 21 -3 3 -1 18 5
33 17 44 18 65 5 73 -8 5 -7 8 6 8 10 0 17 8 17 20 0 26 29 100 48 123 16 18
52 24 52 8z m-1406 -22 c27 -21 33 -53 15 -79 -9 -13 -10 -13 -7 0 4 24 -25
60 -49 60 -12 0 -31 -12 -43 -27 -12 -16 -18 -21 -14 -13 4 8 14 23 22 33 8 9
10 17 4 17 -10 0 -42 -35 -70 -76 -7 -11 -6 -6 2 11 21 43 74 90 107 94 4 1
18 -8 33 -20z m1011 11 c3 -5 1 -10 -4 -10 -6 0 -11 5 -11 10 0 6 2 10 4 10 3
0 8 -4 11 -10z m1132 -42 c-3 -8 -6 -5 -6 6 -1 11 2 17 5 13 3 -3 4 -12 1 -19z
m-693 -19 c-8 -14 -34 -11 -34 4 0 8 3 17 7 20 9 9 34 -13 27 -24z m900 16
c11 -8 18 -17 15 -19 -2 -3 -15 4 -29 14 -14 11 -20 20 -15 19 6 0 19 -6 29
-14z m-2656 -70 c0 -5 -6 4 -13 20 -8 17 -14 37 -14 45 0 8 7 -1 14 -20 7 -19
13 -39 13 -45z m1962 60 c0 -8 -7 -15 -15 -15 -8 0 -15 7 -15 15 0 8 7 15 15
15 8 0 15 -7 15 -15z m-446 -26 c-3 -5 -10 -7 -15 -3 -5 3 -7 10 -3 15 3 5 10
7 15 3 5 -3 7 -10 3 -15z m-969 -9 c3 -5 1 -19 -6 -31 -11 -21 -10 -22 19 -16
16 3 32 4 35 0 10 -10 -26 -73 -42 -73 -13 1 -12 4 3 15 14 11 16 15 5 15 -10
1 -9 5 5 15 19 14 18 15 -12 15 -18 0 -32 5 -32 11 0 5 -4 7 -10 4 -14 -9 -12
29 2 43 15 15 25 15 33 2z m1309 -16 c20 -8 21 -54 1 -54 -9 0 -12 6 -9 15 10
24 -24 18 -40 -7 -14 -22 -20 -48 -17 -75 2 -19 42 -16 71 4 l24 17 -23 -32
c-16 -23 -30 -32 -50 -32 -30 0 -57 22 -47 39 4 5 2 12 -3 15 -16 10 6 69 34
94 28 24 34 25 59 16z m71 -70 c-17 -60 -15 -75 10 -54 21 17 19 8 -4 -18 -20
-23 -36 -28 -46 -13 -8 13 26 144 39 153 18 12 18 -9 1 -68z m92 56 l-5 -21
33 21 c29 18 34 18 45 5 11 -13 8 -26 -16 -77 -30 -63 -45 -58 -24 8 7 19 9
38 6 41 -12 13 -58 -43 -69 -84 -11 -41 -20 -52 -30 -35 -8 13 29 144 44 153
20 13 22 11 16 -11z m187 11 c3 -4 17 -6 31 -3 15 2 25 0 25 -7 0 -7 -5 -9
-12 -5 -7 5 -8 3 -3 -5 4 -7 2 -33 -5 -57 -15 -52 -8 -65 20 -39 11 10 20 14
20 9 0 -14 -46 -54 -61 -53 -8 0 -5 4 6 9 19 8 19 9 1 9 -16 1 -18 7 -13 49 2
26 8 56 12 67 4 11 3 16 -2 10 -4 -5 -17 -10 -28 -10 -14 0 -26 -13 -40 -42
-11 -23 -23 -44 -27 -48 -6 -7 -6 -1 7 58 9 44 55 82 69 58z m-1463 -14 c22 6
23 0 6 -48 -9 -25 -15 -33 -23 -25 -5 6 -8 18 -6 28 6 30 -20 32 -44 5 -24
-28 -44 -35 -44 -17 0 6 10 15 23 20 13 5 16 9 7 10 -11 0 -8 6 9 20 15 13 28
17 38 11 9 -5 24 -6 34 -4z m133 4 c3 -5 15 -7 25 -4 18 5 19 2 9 -31 -6 -20
-14 -36 -18 -36 -4 0 -5 -11 -3 -24 3 -16 10 -23 19 -19 21 8 17 -1 -13 -28
-16 -13 -23 -18 -17 -11 14 16 6 55 -9 45 -6 -4 -8 2 -4 15 4 12 10 31 13 42
4 13 1 22 -11 26 -24 10 -46 -17 -52 -66 -6 -40 -4 -43 14 -38 15 4 20 1 19
-11 -3 -18 -43 -28 -57 -14 -6 6 3 8 23 7 l33 -3 -32 11 c-18 6 -33 15 -33 20
0 5 5 6 10 3 6 -3 10 -1 10 4 0 6 -4 11 -10 11 -28 0 8 81 44 99 27 13 34 13
40 2z m170 -13 c8 -13 5 -23 -14 -44 -14 -14 -35 -30 -47 -35 -26 -10 -31 -37
-9 -45 8 -3 28 2 46 11 31 16 31 16 20 -5 -6 -11 -15 -18 -21 -15 -5 4 -9 3
-9 -2 0 -4 -13 -8 -30 -8 -29 0 -30 2 -31 45 -1 39 -2 42 -10 20 -7 -21 -8
-19 -4 10 6 41 52 92 79 88 10 -2 24 -11 30 -20z m85 6 c17 20 35 20 51 1 10
-12 15 -12 35 1 45 29 56 -1 30 -76 -18 -50 -13 -60 15 -35 29 26 38 9 10 -20
-31 -33 -70 -34 -70 -1 0 13 7 40 16 61 22 53 12 65 -24 29 -21 -21 -34 -46
-38 -73 -4 -25 -12 -41 -20 -41 -19 0 -18 20 6 80 16 40 17 50 6 50 -20 0 -56
-48 -63 -82 -3 -16 -10 -28 -15 -28 -5 0 -6 -4 -3 -10 3 -5 1 -10 -6 -10 -7 0
-9 9 -5 23 3 12 11 47 18 77 12 57 29 80 38 54 5 -14 7 -14 19 0z m599 -16
c-27 -87 -28 -100 -7 -95 10 3 19 1 19 -4 0 -5 -7 -9 -16 -9 -8 0 -12 -4 -9
-10 3 -5 -3 -10 -14 -10 -12 0 -21 5 -21 11 0 5 5 7 11 4 6 -5 6 0 -1 12 -19
29 5 133 30 133 16 0 17 -4 8 -32z m-1267 -29 c-13 -40 -17 -44 -22 -26 -4 14
0 27 9 35 9 6 12 12 6 13 -5 0 -19 2 -32 5 -17 3 -27 -4 -42 -29 -16 -25 -20
-28 -20 -12 0 17 -2 17 -10 5 -5 -8 -10 -10 -10 -5 0 6 11 22 25 37 19 21 33
26 68 26 l44 -1 -16 -48z m-402 -74 c0 -5 -13 15 -29 45 -16 30 -29 60 -29 65
0 6 13 -15 29 -45 16 -30 29 -59 29 -65z m251 93 c0 -7 -5 -20 -11 -28 -8 -12
-9 -10 -4 7 5 17 1 22 -17 26 -20 4 -20 4 5 6 16 0 27 -4 27 -11z m2086 -25
c-8 -15 -15 -25 -16 -21 0 12 23 58 27 54 3 -2 -2 -17 -11 -33z m-1724 -69
c20 5 20 4 4 -12 -15 -15 -18 -15 -26 -2 -5 8 -9 26 -8 40 1 23 1 23 5 -3 4
-24 8 -28 25 -23z m49 29 c13 -16 12 -17 -3 -4 -10 7 -18 15 -18 17 0 8 8 3
21 -13z m1472 -10 c-10 -29 -24 -43 -42 -42 -12 0 -11 2 4 9 l20 9 -20 1 c-19
1 -19 2 1 10 12 5 25 13 29 19 10 17 15 13 8 -6z m-99 -18 c-9 -14 -21 -25
-28 -25 -6 0 -4 5 4 10 13 9 13 10 0 10 -11 0 16 21 38 29 1 1 -5 -10 -14 -24z
m-1871 3 c-2 -5 -15 -8 -28 -8 -13 0 -26 3 -28 8 -3 4 10 7 28 7 18 0 31 -3
28 -7z m534 -13 c0 -8 -4 -12 -9 -9 -4 3 -8 -1 -8 -8 0 -9 -3 -9 -10 2 -7 11
-5 17 8 22 9 4 17 7 18 7 0 1 1 -6 1 -14z m-372 -5 c-3 -5 -12 -10 -18 -10 -7
0 -6 4 3 10 19 12 23 12 15 0z m81 -7 c-2 -10 -10 -19 -20 -19 -13 -2 -14 -1
-1 3 13 4 14 8 4 19 -9 11 -8 14 4 14 9 0 14 -7 13 -17z m119 7 c-3 -5 -12
-10 -18 -10 -7 0 -6 4 3 10 19 12 23 12 15 0z m-420 -156 c118 -160 284 -300
460 -387 328 -162 650 -189 980 -80 182 59 384 185 524 324 61 61 161 189 197
252 13 23 24 38 24 32 0 -28 -137 -212 -221 -296 -181 -181 -423 -311 -679
-364 -110 -23 -279 -30 -390 -15 -52 7 -104 14 -116 15 -11 1 -25 5 -32 9 -7
4 -16 5 -21 1 -5 -3 -12 -1 -16 4 -3 6 -12 8 -20 4 -8 -3 -15 0 -15 7 0 7 -7
10 -15 6 -8 -3 -15 -1 -15 5 0 6 -7 9 -15 5 -8 -3 -15 -1 -15 5 0 6 -7 8 -16
5 -8 -3 -12 -2 -9 4 3 6 0 10 -8 10 -8 0 -63 24 -123 54 -150 73 -293 185
-400 311 -61 72 -164 221 -164 238 0 7 11 -7 24 -29 13 -23 50 -77 81 -120z
m386 128 c-7 -2 -18 1 -23 6 -8 8 -4 9 13 5 13 -4 18 -8 10 -11z m916 12 c-3
-3 -12 -4 -19 -1 -8 3 -5 6 6 6 11 1 17 -2 13 -5z m-810 -10 c-3 -3 -12 -4
-19 -1 -8 3 -5 6 6 6 11 1 17 -2 13 -5z m159 -81 c-2 -11 -13 -19 -27 -20
l-24 -2 25 8 c14 5 21 9 17 10 -5 1 -5 6 -2 11 9 15 14 12 11 -7z m-207 -89
c12 -15 21 -36 21 -48 0 -17 -2 -18 -9 -6 -6 8 -8 17 -6 21 3 3 -6 16 -20 29
-21 20 -28 21 -57 11 -30 -10 -31 -9 -14 4 30 22 62 18 85 -11z m466 -15 c8
-15 14 -45 14 -66 l-2 -38 -7 40 -6 40 -6 -35 -5 -35 -1 36 c-2 39 -17 59 -45
59 -10 0 -15 5 -12 10 13 20 -14 9 -29 -12 -9 -12 -16 -18 -16 -12 0 13 29 40
50 46 26 8 50 -4 65 -33z m153 13 c6 -9 12 -20 12 -26 0 -6 -7 0 -16 12 -14
20 -52 33 -40 14 3 -5 -1 -9 -9 -9 -8 0 -12 4 -9 9 3 4 -2 8 -10 8 -20 0 -30
-17 -14 -23 9 -4 10 -6 1 -6 -18 -1 -24 15 -10 27 29 23 73 21 95 -6z m253 18
c10 -6 19 -16 19 -22 0 -7 -5 -6 -15 2 -8 7 -31 10 -51 8 -32 -4 -34 -3 -18 9
22 16 39 16 65 3z m-722 -9 c8 -5 10 -14 6 -21 -5 -8 -4 -11 3 -6 11 7 28 -31
18 -41 -3 -4 -6 1 -6 11 0 9 -4 15 -9 12 -4 -3 -17 4 -27 16 -11 12 -13 18 -5
13 10 -6 12 -4 6 4 -4 8 -20 11 -36 9 -15 -3 -26 -1 -23 4 7 11 55 10 73 -1z
m167 2 c-7 -7 -87 -5 -95 3 -2 2 20 4 49 4 29 0 50 -3 46 -7z m726 -10 c10 -9
18 -26 17 -37 0 -19 -1 -19 -10 4 -6 13 -15 28 -22 32 -16 10 -55 10 -61 -1
-3 -4 7 -6 22 -3 15 3 25 2 22 -1 -8 -8 -70 -16 -70 -8 0 31 72 42 102 14z
m108 0 c0 -15 -2 -16 -10 -3 -9 15 -25 7 -25 -12 0 -6 -6 -13 -12 -15 -20 -7
-15 25 5 36 26 16 42 13 42 -6z m148 10 c-10 -2 -26 -2 -35 0 -10 3 -2 5 17 5
19 0 27 -2 18 -5z m736 -162 c-6 -6 -122 108 -136 134 -6 11 24 -14 66 -54 41
-41 73 -77 70 -80z m-1029 83 c9 3 13 2 10 -4 -3 -6 -2 -10 4 -10 16 0 41 -30
40 -48 0 -12 -3 -10 -10 6 -5 14 -13 20 -20 16 -8 -5 -9 -3 -4 6 6 9 1 10 -16
5 -19 -5 -21 -4 -9 4 13 9 13 11 -1 11 -9 0 -23 8 -30 18 -13 15 -12 16 3 3
10 -7 25 -11 33 -7z m823 4 c7 -7 12 -20 12 -30 0 -13 -8 -18 -30 -18 -30 0
-37 11 -24 44 7 19 25 21 42 4z m-1874 -25 c11 4 15 3 10 -4 -3 -6 -17 -9 -30
-6 -13 2 -24 0 -24 -6 0 -6 -2 -8 -5 -6 -2 3 -2 15 2 27 5 20 7 21 18 6 7 -11
19 -15 29 -11z m640 13 c-3 -9 -13 -12 -27 -8 -21 6 -21 6 3 13 14 4 26 7 27
8 1 1 0 -5 -3 -13z m-508 -7 c3 -6 16 -9 29 -7 12 3 22 0 22 -6 0 -6 -15 -11
-33 -11 -18 0 -30 2 -28 4 2 2 -1 10 -7 18 -8 9 -8 13 -1 13 6 0 14 -5 18 -11z
m767 -6 c-5 -12 -3 -14 8 -8 8 5 11 5 6 -1 -5 -5 -14 -9 -20 -9 -7 0 -12 -5
-12 -12 0 -6 -4 -15 -9 -20 -5 -5 -6 -3 -2 5 11 18 -3 15 -22 -6 -10 -11 -13
-12 -8 -2 11 16 58 70 63 70 1 0 -1 -7 -4 -17z m-114 3 c-12 -10 -59 -15 -59
-6 0 5 14 10 32 10 17 0 29 -2 27 -4z m-114 -16 c3 -6 -1 -7 -9 -4 -18 7 -21
14 -7 14 6 0 13 -4 16 -10z m643 -17 c-10 -2 -28 -2 -40 0 -13 2 -5 4 17 4 22
1 32 -1 23 -4z m-858 -43 c10 0 24 8 29 18 6 9 11 12 11 7 0 -18 -23 -35 -48
-35 -16 0 -21 -4 -16 -12 4 -7 3 -10 -1 -6 -5 5 -10 20 -11 35 -2 23 -1 25 7
11 6 -10 19 -18 29 -18z m134 5 c11 -8 29 -13 40 -10 19 5 19 4 -1 -6 -18 -10
-28 -8 -55 10 -18 11 -26 21 -18 21 8 -1 24 -7 34 -15z m444 -15 c10 0 24 6
31 13 10 10 11 8 5 -8 -7 -18 -6 -19 12 -5 12 9 15 9 7 1 -17 -20 -91 -21
-105 -2 -10 13 -10 14 2 4 18 -17 38 -17 22 -1 -7 7 -12 17 -12 23 0 5 5 2 11
-7 5 -10 18 -18 27 -18z m-1032 10 c26 0 4 -26 -24 -27 -15 -1 -21 1 -14 4 10
4 10 8 0 21 -11 13 -10 15 5 9 10 -4 25 -7 33 -7z m168 -3 c6 4 3 0 -7 -9 -18
-16 -49 -27 -34 -11 4 3 1 13 -6 21 -10 13 -9 14 11 3 13 -7 29 -9 36 -4z
m762 -4 c-7 -7 -77 -5 -85 2 -2 3 17 5 44 5 27 0 45 -3 41 -7z m1085 -266 c13
-23 -213 209 -242 249 -12 16 35 -29 105 -101 70 -71 131 -138 137 -148z
m-1436 245 c-3 -3 -11 0 -18 7 -9 10 -8 11 6 5 10 -3 15 -9 12 -12z m-1422
-220 c99 -98 168 -159 185 -163 l27 -7 -27 -1 c-23 -1 -57 28 -193 161 -91 89
-165 167 -165 173 0 7 -7 18 -15 25 -8 7 -15 17 -15 24 0 6 10 -4 23 -22 12
-18 93 -103 180 -190z m3189 203 c3 -14 92 -115 215 -242 l53 -54 -41 -42
c-22 -23 -36 -33 -31 -22 9 17 1 28 -53 80 -104 100 -148 139 -189 167 l-39
27 -141 -131 -141 -130 156 153 c86 85 164 166 173 182 18 30 33 35 38 12z
m-416 -87 l29 -33 -32 29 c-31 28 -38 36 -30 36 2 0 16 -15 33 -32z m-2701
-69 c11 -12 -1 -5 -27 16 -27 22 -48 41 -48 43 0 7 56 -36 75 -59z m-50 -11
l40 -41 -47 38 c-27 22 -48 41 -48 42 0 12 22 -3 55 -39z m2905 39 c0 -2 -12
-14 -27 -28 l-28 -24 24 28 c23 25 31 32 31 24z m-3004 -96 c59 -27 104 -85
104 -136 0 -108 -127 -184 -210 -125 -68 48 -110 173 -76 226 35 52 111 67
182 35z m3272 -13 c36 -22 47 -52 39 -104 -17 -103 -92 -179 -177 -179 -56 0
-76 15 -103 74 -66 150 99 294 241 209z m289 -85 c-4 -3 -3 -11 2 -17 6 -7 0
-22 -17 -41 -15 -17 -23 -25 -18 -18 20 30 -7 24 -41 -8 -27 -24 -22 -17 16
29 29 34 56 62 59 62 3 0 2 -3 -1 -7z m-3956 -40 c13 -16 12 -17 -3 -4 -10 7
-18 15 -18 17 0 8 8 3 21 -13z m4011 -5 c-19 -19 -15 -41 5 -34 13 5 10 -1 -7
-19 -21 -22 -26 -24 -28 -10 -3 15 -7 14 -30 -7 -14 -12 -7 1 17 30 24 28 46
52 49 52 3 0 1 -5 -6 -12z m-4087 -18 c10 -11 16 -20 13 -20 -3 0 -13 9 -23
20 -10 11 -16 20 -13 20 3 0 13 -9 23 -20z m-54 -47 c13 -16 12 -17 -3 -4 -10
7 -18 15 -18 17 0 8 8 3 21 -13z m94 -3 c10 -11 16 -20 13 -20 -3 0 -13 9 -23
20 -10 11 -16 20 -13 20 3 0 13 -9 23 -20z m-30 -70 c27 -27 47 -50 44 -50 -3
0 -27 23 -54 50 -27 28 -47 50 -44 50 3 0 27 -22 54 -50z m95 5 c19 -19 32
-35 29 -35 -3 0 -20 16 -39 35 -19 19 -32 35 -29 35 3 0 20 -16 39 -35z m3900
32 c0 -2 -10 -12 -22 -23 l-23 -19 19 23 c18 21 26 27 26 19z m-3715 -37 c10
-11 16 -20 13 -20 -3 0 -13 9 -23 20 -10 11 -16 20 -13 20 3 0 13 -9 23 -20z
m3315 -68 c-9 -3 -70 25 -70 33 0 2 18 -4 40 -13 21 -9 35 -18 30 -20z m-3187
11 c-7 -2 -19 -2 -25 0 -7 3 -2 5 12 5 14 0 19 -2 13 -5z m-313 -48 c19 -19
32 -35 29 -35 -3 0 -20 16 -39 35 -19 19 -32 35 -29 35 3 0 20 -16 39 -35z"/>
<path d="M4045 4370 c10 -11 20 -20 23 -20 3 0 -3 9 -13 20 -10 11 -20 20 -23
20 -3 0 3 -9 13 -20z"/>
<path d="M1000 3843 c0 -13 29 -38 35 -31 3 3 -4 13 -15 23 -11 10 -20 13 -20
8z"/>
<path d="M2106 3535 c-16 -41 -21 -45 -51 -45 -56 0 -59 -30 -5 -45 19 -5 21
-4 10 4 -10 7 -11 11 -3 11 24 0 32 -34 17 -69 -22 -51 -16 -59 16 -23 34 37
46 39 73 15 19 -17 19 -17 12 7 -5 14 -8 35 -7 48 1 13 -5 30 -13 38 -18 18
-19 11 -4 -19 10 -21 10 -21 -5 -3 -12 15 -28 20 -68 19 -43 0 -45 1 -12 4 38
4 42 7 53 45 10 31 15 38 22 27 5 -8 9 -9 9 -3 0 6 -6 17 -14 23 -11 9 -17 2
-30 -34z"/>
<path d="M2846 3550 c-5 -19 -13 -41 -18 -47 -7 -9 -7 -13 1 -13 15 0 33 47
29 74 -3 15 -6 12 -12 -14z"/>
<path d="M2875 3560 c12 -40 26 -59 19 -25 -4 17 -11 35 -16 40 -7 7 -8 1 -3
-15z"/>
<path d="M2370 3557 c0 -10 8 -17 18 -17 9 0 13 4 7 8 -5 4 -13 11 -17 16 -5
5 -8 2 -8 -7z"/>
<path d="M2590 3540 c-14 -11 -22 -20 -18 -20 14 0 58 23 58 32 0 13 -13 9
-40 -12z"/>
<path d="M2440 3510 c0 -6 7 -13 15 -16 20 -8 19 -17 -6 -45 l-20 -24 11 23
c7 13 9 26 6 29 -3 4 -13 -11 -22 -32 -24 -59 -2 -61 37 -2 20 30 41 51 49 49
12 -3 13 -1 2 10 -11 11 -15 10 -23 -2 -8 -13 -11 -13 -23 3 -15 19 -26 22
-26 7z"/>
<path d="M2740 3481 c0 -11 31 -24 39 -16 3 3 -1 10 -9 15 -19 12 -30 12 -30
1z"/>
<path d="M2208 3464 c-16 -8 -28 -21 -28 -29 0 -13 2 -13 18 0 9 8 26 21 37
29 26 20 8 20 -27 0z"/>
<path d="M2570 3439 c0 -5 -5 -7 -12 -3 -8 5 -9 2 -5 -10 4 -10 7 -20 7 -22 0
-2 4 -4 9 -4 5 0 9 11 9 25 0 14 -2 25 -4 25 -2 0 -4 -5 -4 -11z"/>
<path d="M2926 3401 c4 -31 3 -42 -5 -37 -6 4 -8 12 -5 18 4 6 2 8 -3 5 -13
-8 -36 17 -25 28 4 4 -4 2 -18 -6 -24 -13 -25 -14 -3 -17 12 -2 29 -14 37 -28
9 -13 23 -24 31 -24 18 0 18 4 0 60 l-15 45 6 -44z"/>
<path d="M1809 3390 c-3 -27 -10 -36 -29 -41 -25 -6 -25 -6 5 -11 17 -3 9 -4
-17 -3 -27 1 -48 -1 -48 -5 0 -11 49 -22 62 -14 6 4 8 3 5 -2 -3 -6 -2 -16 3
-24 6 -10 2 -22 -12 -37 -29 -31 -15 -41 24 -18 31 18 32 18 49 -3 22 -28 39
-28 38 1 0 12 -3 16 -6 9 -4 -10 -10 -7 -21 9 -23 34 -24 65 -2 65 12 0 16 -4
10 -11 -5 -6 -5 -17 0 -25 8 -13 10 -12 10 3 0 10 11 22 25 27 14 5 25 14 25
20 0 7 -6 8 -18 1 -11 -6 -32 -7 -48 -2 -24 6 -31 15 -40 52 l-12 44 -3 -35z"/>
<path d="M3156 3384 c-4 -14 -5 -29 -2 -31 3 -3 8 7 12 21 3 15 4 29 1 32 -2
3 -8 -7 -11 -22z"/>
<path d="M2185 3373 c0 -14 6 -28 14 -31 10 -3 12 0 8 12 -4 10 -7 24 -7 32 0
8 -4 14 -8 14 -4 0 -8 -12 -7 -27z"/>
<path d="M1840 3371 c0 -11 4 -22 9 -25 4 -3 6 6 3 19 -5 30 -12 33 -12 6z"/>
<path d="M2796 3372 c-11 -34 -3 -36 25 -5 13 15 17 22 7 15 -13 -10 -17 -10
-20 0 -3 8 -8 3 -12 -10z"/>
<path d="M3174 3348 c5 -16 -1 -18 -47 -17 -38 0 -47 3 -32 9 16 7 17 9 3 9
-9 1 -20 -4 -24 -10 -10 -16 17 -30 44 -24 15 4 21 2 17 -5 -3 -5 1 -10 10
-10 9 0 19 -8 22 -17 6 -21 63 -69 63 -54 0 16 -32 51 -42 45 -4 -3 -8 0 -8 5
0 6 9 11 20 11 23 0 70 28 70 41 0 10 -60 0 -77 -13 -7 -5 -20 -8 -30 -5 -14
4 -13 5 5 6 24 1 27 9 11 31 -9 13 -10 12 -5 -2z"/>
<path d="M3147 3283 c-4 -3 -7 -11 -7 -17 0 -6 5 -5 12 2 6 6 9 14 7 17 -3 3
-9 2 -12 -2z"/>
<path d="M3114 3246 c-8 -22 3 -33 18 -18 9 9 9 15 0 24 -9 9 -13 7 -18 -6z"/>
<path d="M2228 3183 c12 -2 30 -2 40 0 9 3 -1 5 -23 4 -22 0 -30 -2 -17 -4z"/>
<path d="M2718 3183 c6 -2 18 -2 25 0 6 3 1 5 -13 5 -14 0 -19 -2 -12 -5z"/>
<path d="M2118 3173 c12 -2 30 -2 40 0 9 3 -1 5 -23 4 -22 0 -30 -2 -17 -4z"/>
<path d="M2188 3153 c7 -3 16 -2 19 1 4 3 -2 6 -13 5 -11 0 -14 -3 -6 -6z"/>
<path d="M3084 3111 c11 -12 30 -38 42 -59 13 -20 24 -32 24 -26 0 14 -54 89
-72 100 -7 4 -4 -2 6 -15z"/>
<path d="M3318 2923 c18 -2 45 -2 60 0 15 2 0 4 -33 4 -33 0 -45 -2 -27 -4z"/>
<path d="M1814 2753 c9 -17 21 -35 27 -39 13 -8 -1 21 -26 51 -15 19 -15 18
-1 -12z"/>
<path d="M1670 2449 c0 -5 5 -7 10 -4 6 3 10 8 10 11 0 2 -4 4 -10 4 -5 0 -10
-5 -10 -11z"/>
<path d="M3310 2463 c0 -6 10 -19 22 -27 25 -18 83 -22 73 -6 -4 6 -14 10 -23
9 -21 -3 -54 11 -64 25 -5 8 -8 7 -8 -1z"/>
<path d="M2266 1978 c-24 -33 -19 -40 14 -23 31 16 41 45 16 45 -8 0 -22 -10
-30 -22z"/>
<path d="M2311 1687 c2 -1 14 -11 27 -21 12 -11 22 -16 22 -13 0 10 -31 37
-42 37 -6 0 -9 -1 -7 -3z"/>
<path d="M1360 4337 c0 -2 15 -16 33 -33 l32 -29 -29 33 c-28 30 -36 37 -36
29z"/>
<path d="M2412 3989 c-5 -13 -12 -40 -16 -60 -8 -43 -20 -56 -61 -62 l-30 -4
31 -2 c48 -2 73 25 83 89 10 60 7 76 -7 39z"/>
<path d="M2467 3993 c18 -2 50 -2 70 0 21 2 7 4 -32 4 -38 0 -55 -2 -38 -4z"/>
<path d="M2478 3963 c6 -2 18 -2 25 0 6 3 1 5 -13 5 -14 0 -19 -2 -12 -5z"/>
<path d="M2834 3943 c-9 -16 -26 -41 -37 -57 -11 -16 -14 -27 -8 -25 13 5 77
109 67 109 -3 0 -13 -12 -22 -27z"/>
<path d="M2610 3911 c0 -6 4 -13 10 -16 6 -3 7 1 4 9 -7 18 -14 21 -14 7z"/>
<path d="M3012 3859 c-2 -44 2 -60 16 -70 15 -12 16 -12 5 1 -6 9 -13 40 -16
70 l-3 55 -2 -56z"/>
<path d="M2728 3863 c6 -2 18 -2 25 0 6 3 1 5 -13 5 -14 0 -19 -2 -12 -5z"/>
<path d="M2217 3835 c3 -8 9 -12 14 -9 12 7 11 11 -5 17 -10 4 -13 1 -9 -8z"/>
<path d="M2313 3843 c9 -2 23 -2 30 0 6 3 -1 5 -18 5 -16 0 -22 -2 -12 -5z"/>
<path d="M2395 3820 c-3 -5 -1 -10 4 -10 6 0 11 5 11 10 0 6 -2 10 -4 10 -3 0
-8 -4 -11 -10z"/>
<path d="M1800 3775 c13 -14 26 -25 28 -25 3 0 -5 11 -18 25 -13 14 -26 25
-28 25 -3 0 5 -11 18 -25z"/>
<path d="M3196 3761 c-10 -11 -28 -22 -40 -24 -19 -4 -19 -4 -1 -6 11 0 34 10
50 24 17 13 25 24 19 25 -6 0 -19 -9 -28 -19z"/>
<path d="M3345 3673 c-18 -46 -18 -46 5 -65 12 -10 34 -18 49 -17 22 1 23 2 6
7 -11 4 -28 12 -38 18 -16 9 -17 13 -2 40 8 16 15 37 15 47 0 32 -17 17 -35
-30z"/>
<path d="M3405 3569 c-11 -4 -14 -8 -7 -8 7 -1 11 -5 8 -10 -3 -4 3 -16 13
-25 17 -16 18 -15 17 6 -1 13 1 28 6 34 9 13 -9 14 -37 3z"/>
<path d="M3287 3549 c7 -9 11 -18 8 -21 -3 -3 3 -11 12 -19 16 -13 17 -12 4 4
-21 26 2 20 29 -8 30 -32 47 -33 23 -1 -10 13 -20 22 -22 20 -2 -2 -18 6 -35
18 -17 12 -25 15 -19 7z"/>
<path d="M3700 3320 c-8 -5 -10 -10 -5 -10 6 0 17 5 25 10 8 5 11 10 5 10 -5
0 -17 -5 -25 -10z"/>
<path d="M3807 3009 c10 -17 24 -36 32 -42 8 -7 2 7 -14 31 -32 49 -45 57 -18
11z"/>
<path d="M3868 2953 c7 -3 16 -2 19 1 4 3 -2 6 -13 5 -11 0 -14 -3 -6 -6z"/>
</g>
</svg>
